<?xml version="1.0" encoding="utf-8"?>
<!-- Generator: Adobe Illustrator 19.2.1, SVG Export Plug-In . SVG Version: 6.00 Build 0)  -->
<svg version="1.1" xmlns="http://www.w3.org/2000/svg" xmlns:xlink="http://www.w3.org/1999/xlink" x="0px" y="0px"
	 viewBox="0 0 1400 980" style="enable-background:new 0 0 1400 980;" xml:space="preserve">
<style type="text/css">
	.st0{fill:#C9BAB3;}
	.st1{fill:#C2939C;}
	.st2{fill:#CC9FA7;}
	.st3{fill:#A3928F;}
	.st4{fill:#551C5B;}
	.st5{fill:#D96A64;}
	.st6{fill:#E37068;}
	.st7{fill:#171936;}
	.st8{fill:#AD57C2;}
	.st9{fill:#636AC4;}
	.st10{fill:#BF5F58;}
	.st11{fill:#545AA6;}
	.st12{opacity:0.6;fill:#FFFFFF;}
	.st13{opacity:0.8;fill:#FFFFFF;}
	.st14{fill:#8D469E;}
	.st15{fill:#0E0F21;}
	.st16{fill:#CF6660;}
	.st17{fill:#C4605A;}
	.st18{fill:#DBDBDB;}
	.st19{fill:#363D77;}
	.st20{fill:#471B58;}
	.st21{fill:#FFFFFF;}
	.st22{fill:#B55953;}
	.st23{fill:#E6A08C;}
	.st24{fill:#FFBFAB;}
	.st25{fill:#CC8B78;}
	.st26{fill:#766BA2;}
	.st27{fill:#B8CFFF;}
	.st28{fill:#738FC7;}
	.st29{fill:#D6E3FF;}
	.st30{fill:#94B6FF;}
	.st31{opacity:0.44;}
	.st32{fill:#82A0E0;}
	.st33{fill:#C22F2F;}
	.st34{fill:#D9D9D9;}
	.st35{fill:#C73A76;}
	.st36{fill:#FFB296;}
	.st37{fill:#E09276;}
	.st38{fill:#FA5399;}
	.st39{fill:#9E3939;}
	.st40{fill:#C24545;}
	.st41{fill:#252657;}
	.st42{fill:#2D2E66;}
	.st43{fill:#37387F;}
	.st44{fill:#D63E7F;}
	.st45{fill:#F59F82;}
	.st46{fill:#7883F4;}
	.st47{fill:#EB997B;}
	.st48{fill:#1D2045;}
</style>
<g id="Layer_2">
</g>
<g id="Layer_1">
	<g>
		<rect class="st0" width="1400" height="980"/>
		<g>
			<path class="st1" d="M206,900.5c0,0-55.5-107,10.8-174.9s134.3-46.4,79.6-194S242,199.7,407.5,141.9
				C547.6,93,613.1,275.4,739.1,267.1c126-8.3,187.4-249.5,320-213s172.5,191.5,91.2,382.6c-81.3,191.1-74.6,190.5-29.8,255.8
				c79.6,116.1-59.7,208.1-59.7,208.1H206z"/>
			<path class="st2" d="M1060.1,54.8c-132.7-36.5-194,204.7-320,213S548.6,93.8,408.5,142.7C243,200.4,242.6,384.8,297.4,532.3
				c25.2,67.9,24.4,100,9.7,121.4c0,0,117.8-81.5,269.4,0c151.6,81.5,265.1-78.5,403.4-137.4c138.3-59,158.5-48.2,158.5-48.2l0,0
				c4.1-9.6,8.4-19.9,13-30.7C1232.6,246.3,1192.8,91.3,1060.1,54.8z"/>
		</g>
		<rect x="0" y="896.9" class="st3" width="1400" height="83.1"/>
		<g>
			<path class="st3" d="M78.3,241.7c8.8,5.8,20.5,4.3,27.4-3.7c1.9,1.6,3.8,3.3,5.7,4.9c-9.4,10.8-25.3,12.9-37.2,5
				C75.5,245.9,76.9,243.8,78.3,241.7z"/>
			<path class="st3" d="M724,112.8c8.8,5.8,20.5,4.3,27.4-3.7c1.9,1.6,3.8,3.3,5.7,4.9c-9.4,10.8-25.3,12.9-37.2,5
				C721.3,116.9,722.6,114.8,724,112.8z"/>
			<path class="st3" d="M420,97.9c4.9-13.4,19-21.2,33-18C452.4,82.4,422.4,98.8,420,97.9z"/>
			<path class="st3" d="M1228.8,350c4.9-13.4,19-21.2,33-18C1261.2,334.4,1231.2,350.8,1228.8,350z"/>
			<path class="st3" d="M1274.2,133.1c4.9-13.4,19-21.2,33-18C1306.6,117.6,1276.5,134,1274.2,133.1z"/>
			<path class="st3" d="M1241.2,492.5c4.9-13.4,19-21.2,33-18C1273.6,476.9,1243.6,493.3,1241.2,492.5z"/>
			<path class="st3" d="M230.5,89c14.1-2.2,27.7,6.4,31.7,20.1C259.8,109.8,230.9,91.4,230.5,89z"/>
			<path class="st3" d="M661.9,182.7c-1.5-5.2,0.5-10.6,4.7-13.6c-1.4-0.1-2.8,0.1-4.2,0.5c-6.6,1.9-10.4,8.9-8.5,15.5
				s8.9,10.4,15.5,8.5c1.4-0.4,2.7-1.1,3.8-1.9C668,191.4,663.4,187.9,661.9,182.7z"/>
			<path class="st3" d="M134,520.7c-1.5-5.2,0.5-10.6,4.7-13.6c-1.4-0.1-2.8,0.1-4.2,0.5c-6.6,1.9-10.4,8.9-8.5,15.5
				c1.9,6.6,8.9,10.4,15.5,8.5c1.4-0.4,2.7-1.1,3.8-1.9C140.2,529.4,135.6,525.9,134,520.7z"/>
			<path class="st3" d="M1167.3,585c-1.5-5.2,0.5-10.6,4.7-13.6c-1.4-0.1-2.8,0.1-4.2,0.5c-6.6,1.9-10.4,8.9-8.5,15.5
				c1.9,6.6,8.9,10.4,15.5,8.5c1.4-0.4,2.7-1.1,3.8-1.9C1173.4,593.7,1168.8,590.2,1167.3,585z"/>
			<g>
				<path class="st3" d="M603.3,117.1c0.3,0,0.7,0,1,0c1.2,0,2.4-0.5,3.2-1.3c0.8-0.8,1.4-2.1,1.3-3.2c-0.1-1.2-0.4-2.4-1.3-3.2
					c-0.9-0.8-2-1.3-3.2-1.3c-0.3,0-0.7,0-1,0c-1.2,0-2.4,0.5-3.2,1.3c-0.8,0.8-1.4,2.1-1.3,3.2c0.1,1.2,0.4,2.4,1.3,3.2
					C601,116.6,602.1,117.1,603.3,117.1L603.3,117.1z"/>
			</g>
			<g>
				<path class="st3" d="M721.7,177.3c5.9,0,5.9-9.2,0-9.2C715.8,168.2,715.8,177.3,721.7,177.3L721.7,177.3z"/>
			</g>
			<g>
				<path class="st3" d="M841.1,122.7c3.9,0,3.9-6.1,0-6.1C837.2,116.6,837.2,122.7,841.1,122.7L841.1,122.7z"/>
			</g>
			<g>
				<path class="st3" d="M933,56.4c3.9,0,3.9-6.1,0-6.1C929,50.3,929,56.4,933,56.4L933,56.4z"/>
			</g>
			<g>
				<path class="st3" d="M878.9,84c3.9,0,3.9-6.1,0-6.1C874.9,77.8,874.9,84,878.9,84L878.9,84z"/>
			</g>
			<g>
				<path class="st3" d="M1156.5,75.8c3.9,0,3.9-6.1,0-6.1C1152.5,69.7,1152.5,75.8,1156.5,75.8L1156.5,75.8z"/>
			</g>
			<g>
				<path class="st3" d="M1232,131.9c3.9,0,3.9-6.1,0-6.1C1228,125.8,1228,131.9,1232,131.9L1232,131.9z"/>
			</g>
			<g>
				<path class="st3" d="M1229.9,198.3c3.9,0,3.9-6.1,0-6.1C1226,192.1,1226,198.3,1229.9,198.3L1229.9,198.3z"/>
			</g>
			<g>
				<path class="st3" d="M1295.1,320.6c-0.3,0.3-0.7,0.7-1,1c-1.1,1.1-1.2,3.2,0,4.3c1.2,1.1,3.1,1.2,4.3,0c0.3-0.3,0.7-0.7,1-1
					c1.1-1.1,1.2-3.2,0-4.3C1298.2,319.5,1296.4,319.4,1295.1,320.6L1295.1,320.6z"/>
			</g>
			<g>
				<path class="st3" d="M1234,412.6c3.9,0,3.9-6.1,0-6.1C1230.1,406.5,1230.1,412.6,1234,412.6L1234,412.6z"/>
			</g>
			<g>
				<path class="st3" d="M96.1,100.3c3.9,0,3.9-6.1,0-6.1C92.1,94.2,92.1,100.3,96.1,100.3L96.1,100.3z"/>
			</g>
			<g>
				<path class="st3" d="M97.1,168.7c3.9,0,3.9-6.1,0-6.1C93.1,162.5,93.1,168.7,97.1,168.7L97.1,168.7z"/>
			</g>
			<g>
				<path class="st3" d="M322.6,85c3.9,0,3.9-6.1,0-6.1C318.7,78.9,318.7,85,322.6,85L322.6,85z"/>
			</g>
			<g>
				<path class="st3" d="M165.5,207.4c3.9,0,3.9-6.1,0-6.1C161.5,201.3,161.5,207.4,165.5,207.4L165.5,207.4z"/>
			</g>
			<g>
				<path class="st3" d="M70.6,423.8c3.9,0,3.9-6.1,0-6.1C66.6,417.7,66.6,423.8,70.6,423.8L70.6,423.8z"/>
			</g>
			<g>
				<path class="st3" d="M126.6,350.2c-0.3,0.3-0.7,0.7-1,1c-1.1,1.1-1.2,3.2,0,4.3c1.2,1.1,3.1,1.2,4.3,0c0.3-0.3,0.7-0.7,1-1
					c1.1-1.1,1.2-3.2,0-4.3C129.7,349.1,127.8,349,126.6,350.2L126.6,350.2z"/>
			</g>
			<g>
				<path class="st3" d="M99.1,612.6c0.7,0,1.4,0,2,0c1.6,0,3.1-1.4,3.1-3.1c-0.1-1.7-1.3-3.1-3.1-3.1c-0.7,0-1.4,0-2,0
					c-1.6,0-3.1,1.4-3.1,3.1C96.1,611.2,97.4,612.6,99.1,612.6L99.1,612.6z"/>
			</g>
			<g>
				<path class="st3" d="M175.7,586.1c3.9,0,3.9-6.1,0-6.1C171.7,580,171.7,586.1,175.7,586.1L175.7,586.1z"/>
			</g>
			<g>
				<path class="st3" d="M1190.1,497.3c3.9,0,3.9-6.1,0-6.1C1186.2,491.2,1186.2,497.3,1190.1,497.3L1190.1,497.3z"/>
			</g>
			<g>
				<path class="st3" d="M1259.5,617.7c3.9,0,3.9-6.1,0-6.1C1255.6,611.6,1255.6,617.7,1259.5,617.7L1259.5,617.7z"/>
			</g>
		</g>
		<g>
			<path class="st4" d="M551.9,182c-8.7-0.6-18.8,0.1-23.8,7.2c-2.3,3.3-3.1,7.5-5,11.1c-6,10.9-20.8,12.5-31.5,18.9
				c-12.5,7.4-19.8,22.9-17.5,37.3c1.9,12.1,9.9,23.6,7.4,35.5c-2.5,12-14.4,19.5-19.9,30.4c-6.5,13.2-1.5,31,11.1,38.8
				c6.9,4.3,15.8,6.1,20.2,12.9c3.1,4.7,3.1,10.8,5.1,16.1c2.7,7.3,9.2,12.8,16.4,15.8c7.2,3,15.1,3.8,22.9,4c6,0.1,13-0.6,16.3-5.6
				c2.4-3.6,2-8.3,2.2-12.6c0.7-12,7-23.2,7.8-35.2c0.5-7.7-1.3-15.3-2-22.9c-1.5-16.8,2.3-33.7,6-50.2c5.2-22.5,10.3-45,17.3-67
				c2.2-7,4.7-14.2,4.1-21.6c-0.5-5.8-4.9-16.5-12.1-16.5c-3.1,0-7.8,3.5-11.4,3.9C561,182.8,556.4,182.3,551.9,182z"/>
			<path class="st4" d="M616.2,190.8c0,0,2.5,8.5,7.4,22.3c3.5,10-4,28.7-3.2,28.7l-10.9-37.8L616.2,190.8z"/>
			<path class="st5" d="M626.6,299.6c-17-0.6-15.5,19.3-3,73.3c10,43.2,8.9,50.6,18.6,53.3c9.3,2.5,82.1-11.1,82.1-11.1l-0.9-14.1
				c0,0-46.3-2.5-67.8-1.9C647.7,399.2,653,300.6,626.6,299.6z"/>
			<g>
				<path class="st6" d="M628.8,818.5c0,0-4,14.3-3,24.5c1.1,10.2,28.8,51.1,40.5,51.1c11.7,0,21.3,0,26.2,0s-33.2-30.9-41.1-47.7
					c-7.9-16.8-7.9-27.9-7.9-27.9H628.8z"/>
				<path class="st7" d="M626.1,832.9c-0.5,0.1,7,10.3,16,22.1c6.9,9.1,15.2,19.1,21.9,22c7.8,3.4,11.2-1.8,11.2-1.8
					s9.3,4.2,15.6,12.2c2.9,3.7,5,9.4,0,9.4c-13.1,0-18.8,0-28,0c-7.4,0-20.2-19.2-24.1-27.2c-1.7-3.5-5.4-3.5-5.4-0.9
					s-0.3,28.1-0.3,28.1h-5.5c0,0,0.1-28-1.9-32c-2.8-5.4-4.6-12.7-3.8-20.2C622.6,838.3,626.1,832.9,626.1,832.9z"/>
			</g>
			<g>
				<path class="st6" d="M558.2,818.5c0,0-4,14.3-3,24.5c1.1,10.2,28.8,51.1,40.5,51.1c11.7,0,21.3,0,26.2,0s-33.2-30.9-41.1-47.7
					c-7.9-16.8-7.9-27.9-7.9-27.9H558.2z"/>
				<path class="st7" d="M555.6,832.9c-0.5,0.1,7,10.3,16,22.1c6.9,9.1,15.2,19.1,21.9,22c7.8,3.4,11.2-1.8,11.2-1.8
					s9.3,4.2,15.6,12.2c2.9,3.7,5,9.4,0,9.4c-13.1,0-18.8,0-28,0c-7.4,0-20.2-19.2-24.1-27.2c-1.7-3.5-5.4-3.5-5.4-0.9
					s-0.3,28.1-0.3,28.1H557c0,0,0.1-28-1.9-32c-2.8-5.4-4.6-12.7-3.8-20.2C552,838.3,555.6,832.9,555.6,832.9z"/>
			</g>
			<path class="st6" d="M617.3,298.8c-8.6-0.2-21.5-4.8-23.1-13.2c-2.1-11.4-1-38.4-1-38.4h-32.5c0,0,0.9,30.4-1.1,39.7
				c-1.8,8-18.6,14.2-26.5,14.9c-18.6,1.7-19.8,17.1-20.4,27.8c-1.5,24.5,42.6,56.7,9.2,156.9l113.6,6c-7.9-33-17.5-78.7-9.4-103.6
				c7.9-24.1,4.9-36.7,0.3-54.2C623.5,323.7,627.7,299,617.3,298.8z"/>
			<path class="st8" d="M560.7,247.2c0,0,0.6,9.5,0.2,21.5c9,8.2,23.2,15.7,33.9,18.6c-0.2-0.6-0.4-1.1-0.5-1.7
				c-2.1-11.4-1-38.4-1-38.4H560.7z"/>
			<path class="st9" d="M542.7,299.2c0,0,25.4,27.4,49.4,21.6c23.4-5.6,19-22.8,19-22.8l15.4,1.7c0,0-3.1,7.9,4.2,32.4
				c5,16.6,6.5,30.5,1.1,46c-12.6,36.3,0.5,94.6,0.5,94.6l-107.1-5.3c0,0,5.6-17.3,7.8-39c2.9-28.1-4.2-49.5-4.2-49.5
				s3.1-12.6,4.6-34.8c1.9-27.7-4-43-4-43L542.7,299.2z"/>
			<path class="st7" d="M525.4,467.4c0,0-22.8,46.3-10.3,90.1c27.9,97.3,26.7,277.1,26.7,277.1h53.4l-5.4-73.1l-16.6-225.1h14.2
				l25.2,92.8c3.8,14.5,5.7,29.5,5.5,44.5l-1.8,161h50.3l-4.1-163.2c0.6-12-0.2-24.1-2.2-36l-27.9-162.7L525.4,467.4z"/>
			<g>
				<path class="st10" d="M715.5,403.8c0,0,2-5.7,16.9-8c9.1-1.4,14.4-7.2,16.5-6.2c1.8,0.8-0.9,5.2-5.2,7c-5.3,2.3-6.2,3.5-4.4,5
					c1.8,1.6,6.2,1.2,8.8-1c2.6-2.1,8.7-13.8,12-13.1c3.2,0.7-6.8,12.5-5.4,12.7c1.4,0.2,10.4-11.5,13.8-10.3c3.5,1.2-8,11.1-8,11.1
					s-4.7,5.6-15.3,5.9C734.5,407.4,715.5,403.8,715.5,403.8z"/>
				<path class="st5" d="M713.7,408c0-3.2,1.3-10.7,14.1-7.1c10.1,2.8,21.3,4.3,26.1,2.4c2.8-1.1,9.4-5.3,14.5-7.6
					c3.7-1.7,5.8-2,6.9-1.2c2.5,2-18.2,14.4-21.3,15.3c-4.8,1.3-18.2,5.9-29.3,5.9C717.9,415.7,713.7,412.5,713.7,408z"/>
			</g>
			<path class="st11" d="M543,368c6.5-51.4-5.2-62.4-5.2-62.4s-1.9,7-4.2,17.2c0.5,6,0.6,13.1,0,21.3c-1.6,22.1-4.6,34.8-4.6,34.8
				s7.1,21.5,4.2,49.5c-2.2,21.7-7.8,39-7.8,39l40.4,2l0,0C565.8,469.4,536.5,419.4,543,368z"/>
			<path class="st6" d="M533.4,301.9c-16.1-5.5-24.3,12.5-28.3,67.8c-3.2,44.2-6.4,51,2,56.4c8.2,5.2,99.6,20.3,99.6,20.3l3.3-13.8
				c0,0-61.4-22.7-82.1-28.5C520.5,402.1,554.9,309.3,533.4,301.9z"/>
			<g>
				<path class="st6" d="M625,426.8c0,0,5.8-1,7.2-1.5c1.5-0.5,2.3-0.6,3.7-2.7c1-1.4,2.3-0.1,2.2,1.7c-0.1,1.7-0.6,2.8-0.6,2.8
					L625,426.8z"/>
				<g>
					<path class="st12" d="M630.9,392.9c0.1,1,5.1,2.1,11.2,2.6c6.1,0.5,11.2,0.1,11.4-0.8l0,0l-1.6,19.7
						c-0.4,5.6-4.9,9.9-10.3,10.4l-1.3,15.7l3.3,6.9c0,0.5-2.7,0.8-5.8,0.5c-3.2-0.3-5.7-0.9-5.7-1.4l4.4-6.3l1.3-15.7
						c-5.3-1.4-8.9-6.3-8.5-11.9L630.9,392.9L630.9,392.9z"/>
					
						<ellipse transform="matrix(8.009797e-002 -0.9968 0.9968 8.009797e-002 198.29 1002.295)" class="st13" cx="642.2" cy="393.7" rx="1.8" ry="11.4"/>
					<path class="st14" d="M639.9,421.6c4.9,0.4,9.2-3.3,9.5-8.1l0.5-6.4c-2-0.2-15.3-1.2-17.7-1.4l-0.5,6.4
						C631.4,416.9,635.1,421.2,639.9,421.6z"/>
					
						<ellipse transform="matrix(8.009797e-002 -0.9968 0.9968 8.009797e-002 184.6926 1012.9599)" class="st8" cx="641.2" cy="406.4" rx="1.5" ry="8.9"/>
				</g>
				<path class="st6" d="M604.4,435.1c0,0,10.1-7.2,17.3-8.1c13.3-1.6,22.4-0.5,23,1.9c0.5,2.1-0.6,2.7-2.3,2.9
					c-0.9,0.1-1.6,0.2-1.6,0.2s0.2,0.7,0.1,1.9c-0.1,0.7-0.6,1.7-0.6,1.7s0.7,0.5,0.6,2c-0.1,1.2-0.8,2.1-0.8,2.1s0.6,0.6,0.5,2.1
					c-0.1,1.5-1.3,2.5-1.3,2.5s-0.4,2.6-1.2,3.3c-2,1.8-12.2,3-20.8,1.7c-10.2-1.6-13.4-4.1-13.4-4.1L604.4,435.1z"/>
			</g>
			<path class="st6" d="M620.3,236.4c0.4,21.1-6,42.3-11.8,45.3c-9.7,5.2-34-7.6-47.7-13.1c-17.9-7.3-27-31.8-24.8-46.7
				c3.4-22.4,27-34.4,49.3-32.9C603.8,190.3,619.6,201.4,620.3,236.4z"/>
			<path class="st4" d="M615.9,211c-5.7,3.3-7.9,11.8-19.1,10.5c-11.1-1.3-18.2,4.5-20,11.9c-2.2,9-8.6,12.2-9.9,9.7
				c-3.9-7.6-17.7-12.7-18.6,0.1c-0.6,8.4,15.3,12,14.6,15c-1.3,5.6,1.3,26.8-1,33.6c-9.3,27.7-32.5,9.4-32.5,9.4s14.4-14,10.8-29.2
				c-1.7-7.4-24.8-18.9-15.5-46.6c4.5-13.3,8.3-9.5,12.8-25.8c2.4-8.8,9-16.5,20-17.3c5.9-0.4,14.6-4.7,20-5.7
				c17-3.2,22.1,8.8,29.1,8.2C622.2,183.2,623.6,206.6,615.9,211z"/>
			<path class="st15" d="M635.5,490.5l-3.1-17.8l-107.1-5.3c0,0-3.2,6.8-6.6,17.7L635.5,490.5z"/>
			<g>
				<path class="st15" d="M587.2,526.5c-0.4,0-0.8-0.1-1.1-0.4c-0.4-0.4-0.6-1-0.6-1.5l6.6-43c0.1-0.9,1-1.6,1.9-1.4
					c0.9,0.1,1.6,1,1.4,1.9l-5.8,37.8c1.7-2.7,3.9-7.5,5.8-16c2.7-12.2,3.8-20.8,3.8-20.9c0.1-0.9,0.9-1.6,1.9-1.5
					c0.9,0.1,1.6,0.9,1.5,1.9c0,0.1-1.1,8.9-3.8,21.3c-4.2,18.8-9.9,21.4-11,21.8C587.5,526.5,587.4,526.5,587.2,526.5z"/>
			</g>
			<path class="st15" d="M573.3,536.3c0,0,18-0.7,24.1-2.9c6.2-2.1,11.3-6,11.3-6s-2.7,4-10.3,7.1c-6.6,2.7-10.8,2.7-10.8,2.7
				l-0.2-0.9H573.3z"/>
		</g>
		<g>
			<g>
				<path class="st16" d="M514.4,270.6c0,0,7.3-1.3,12.2,1.6c4.9,2.9,3.3,8,0.1,8.9c-3.2,0.9-13.1-7.9-13.1-9.4
					C513.7,270.2,514.4,270.6,514.4,270.6z"/>
				<path class="st17" d="M512.3,277.2c0,0,7.3-1.3,12.2,1.6c4.9,2.9,3.3,8,0.1,8.9c-3.2,0.9-13.1-7.9-13.1-9.4
					C511.6,276.7,512.3,277.2,512.3,277.2z"/>
				<path class="st17" d="M506.4,280.1c0,0,11,2,16,4.9c4.9,2.9,3.3,8,0.1,8.9c-3.2,0.9-15.3-8.3-15.3-9.7
					C507.3,282.7,506.4,280.1,506.4,280.1z"/>
				<path class="st17" d="M505.9,281.3c0,0,9.9,5.9,14.8,8.7c4.9,2.9,3.3,8,0.1,8.9c-1.5,0.4-6.3,5.8-15.3,7.1
					c-4.6,0.7-21.9,9.6-22,8.9C479.3,295.2,505.9,281.3,505.9,281.3z"/>
			</g>
			<g>
				<path class="st12" d="M537.8,232.9c-0.4,1.2-7.1,1.7-15.2,1c-8.1-0.7-14.6-2.2-14.8-3.5l0,0l-2.1,26.1
					c-0.6,7.4,4.3,14,11.2,15.8l-1.7,20.9l-5.8,8.4c-0.1,0.7,3.3,1.6,7.5,1.9c4.2,0.3,7.7,0,7.8-0.7l-4.3-9.2l1.7-20.9
					c7.2-0.7,13-6.4,13.6-13.8L537.8,232.9L537.8,232.9z"/>
				
					<ellipse transform="matrix(8.110783e-002 -0.9967 0.9967 8.110783e-002 249.5424 733.9304)" class="st13" cx="522.8" cy="231.6" rx="2.3" ry="15.1"/>
				<path class="st14" d="M519.8,268.6c-6.5-0.5-11.3-6.2-10.8-12.7l0.7-8.4c2.6,0.2,20.3,1.7,23.4,1.9l-0.7,8.4
					C531.9,264.3,526.3,269.1,519.8,268.6z"/>
				
					<ellipse transform="matrix(8.110783e-002 -0.9967 0.9967 8.110783e-002 231.5017 748.0364)" class="st8" cx="521.4" cy="248.5" rx="2" ry="11.8"/>
			</g>
			<path class="st6" d="M465.6,315.5c0,0,5.5-19.7,11.5-26.3s24.2-22.6,32.6-20.5c9.1,2.3,5.3,5.9,14.1,8.6c7.3,2.2-0.7,10.7-10,6.3
				c-8.6-4.1-3.5,0-10,7.6c-6.5,7.6-12.3,3.3-15.4,12.2s-8,28.6-8,28.6L465.6,315.5z"/>
			<path class="st18" d="M467,307.5c0,0-14.4,32.9-28.1,59.2c-1.2-7.3-6.7-31.2-8.4-38.9c-5.3-24.2-11.6-53.8-38.8-46.5
				c-14.5,3.9-11,29.5-1.4,58.2c14.8,44.4,24,86.1,38.1,87.8c34.3,4.1,64.2-114.9,64.2-114.9L467,307.5z"/>
			<path class="st6" d="M398.9,280.7c-6.2,0.2-12.5-1.2-18.7-1c-8,0.3-14.7-5.8-15.4-13.8l-2.7-34.1h-40.4l-2.9,36.5
				c-0.6,7.6-6.8,13.5-14.4,13.8c-5.3,0.2-10.5,0.3-15.8,0.5c-10,0.3-17.6,9.1-16.4,19.1c7.6,65.8,24.9,110.8,19.5,202l108.2-1.8
				c-6.8-91.7,11.3-129.7,15.4-198.6C415.7,292.8,408.9,280.4,398.9,280.7z"/>
			<path class="st19" d="M399.7,501.8l-108.2,1.8l-10,371.4h35.3l25.6-325.1h6.9l20.4,145.3c0.9,6.6,1.2,13.2,0.8,19.9L365.9,875
				h38.4l11.3-158.3c0.4-5.8,0.4-11.6-0.1-17.4L399.7,501.8z"/>
			<path class="st8" d="M365.2,268.4c-0.2-0.8-0.3-1.6-0.4-2.4l-2.7-34.1h-40.4l-1.3,16.5C320.4,248.3,340,263.7,365.2,268.4z"/>
			<path class="st20" d="M281.6,875v21.7h82.3c0,0-2.2-5.2-12.7-10.3c-12-5.9-37.6-11.4-37.6-11.4H281.6z"/>
			<path class="st20" d="M365.9,875v21.7h82.3c0,0-2.2-5.2-12.7-10.3c-12-5.9-37.6-11.4-37.6-11.4H365.9z"/>
			<path class="st6" d="M389,210.8c0,22.8-1.9,43.6-8.7,47.1c-14.7,7.5-41-1.6-55.8-7.7c-19.5-7.9-28.3-39.2-24.4-55.1
				c5.8-23.6,26.7-37.3,51-35.7C371.1,160.7,389,172.8,389,210.8z"/>
			<path class="st21" d="M332.7,292.8c0,0,1.9,6.1,10.9,19.9c7.3,11.2,11.5,15,11.5,15s5.9-11.4,8.7-21.2
				c2.9-10.5,2.5-15.4,2.5-15.4l6.2-13.9c0,0,0.7-0.1,11.4,0.7c16.9,1.3,21.6,1.2,28.4,6.3c16.3,12.4-1.9,87.9-5.6,105.1
				c-6.5,31-6.8,112.5-6.8,112.5l-108.2,1.8c0,0,1.6-40.6-3.3-79.5s-15.4-101-13.1-119.5c0.7-5.8,0.7-18,7.4-20.7
				c7.7-3.2,21.1-6.2,30.7-5.4c5.2,0.4,8.1,5.2,9.7,7.3C327.7,291.5,332.7,292.8,332.7,292.8z"/>
			<path class="st18" d="M355,327.8c0,0-12.2-25.7-20.3-39.1c-7.5-12.4-15.9-20.4-15.9-20.4s-5.3,3.2-6.8,10
				c2,6.8,7.9,19.3,14.2,26.3c1.2-3.1,3-7.5,5.3-7.6C344.4,322.7,355,327.8,355,327.8z"/>
			<path class="st18" d="M375.7,277.2c-2.2-3.7-9.6-6.3-9.6-6.3s-2,8-3,14c-1.2,7.4-8.1,42.8-8.1,42.8s10.1-17.3,12.2-33.9
				c3.4,2.3,6.1,7.4,6.1,7.4S376.2,281.2,375.7,277.2z"/>
			<path class="st18" d="M314.4,503.1c0,0-0.7-44.4-3.8-89.7c-2.9-43-11-79.4-11-79.4l-18.6,38.4c2.5,18.1,5.2,36.6,7.2,51.7
				c5,38.9,3.3,79.5,3.3,79.5L314.4,503.1z"/>
			<path class="st4" d="M373.4,152.1c-2.9-0.5,4.1,7.2-0.7,9.8c-2.4-6.4-7-8.9-10.1-9.6c-3.1-0.8,1,2.7,0.9,8.2
				c-4.6-5.9-10.8-6.6-12.1-6.9c-2.7-0.6,1,2.4,2.6,5.8c-2.6-2.4-6-3.6-7.9-4c-7.9-1.7-2.5,1.6-1.8,2.7c-7.6-0.5-16.9-1.6-28,4
				c-33.4,16.6-33.7,65,3.7,91c3.7-8.8,5.8-15.9,5.8-24.7c0-1.9-12.7-1.4-13.3-13.4c-0.4-7,5.5-10.4,9.5-9.2
				c7.9,2.3,5.7,10.4,9.1,10.7c1.9,0.2,7.2-0.3,10.3-11.7c2.3-8.4,10.5-19.3,20.8-16.4c12.5,3.5,16.6,3.3,24.3,0.8
				c2.9-5.6,2-16.5-0.2-22.7C383.4,157.9,375.2,152.5,373.4,152.1z"/>
			<g>
				<path class="st8" d="M386.4,166.4c-3-8.5-11.2-14-13-14.3c-1.2-0.2,6.8,9,8.6,14.3c1.5,4.2,2.4,10.5,1.9,15.8
					c-0.4,4.3-3.6,7.7-7.8,8.4c-0.5,0.1-1.1,0.2-1.6,0.2c4.4,0.4,7.6-0.3,12-1.8C389.5,183.5,388.6,172.6,386.4,166.4z"/>
			</g>
			<path class="st21" d="M290,283.3c-14.8-2.7-29.8,14.6-40,43c-15.7,44.1-24.9,79.3-19.8,92.4c13.8,35.2,58.9,89.2,58.9,89.2
				l19.5-10.2c0,0-30.2-72.3-43.4-88.3c-4.2-5,15.3-33.6,29.1-62.4C305.2,324.7,312.8,287.5,290,283.3z"/>
			<path class="st6" d="M290.5,507.3c-0.2,8,3.5,13.9,3.5,13.9s7.3-1,14-5.1c6.3-3.8,11-10.3,11-10.3s-4.7-6.5-12-7.2
				C303.5,500.5,293.9,505.4,290.5,507.3z"/>
		</g>
		<g>
			<path class="st5" d="M829.3,299.9c30.6-7.1,7.4,18,0.9,73c-4.8,40.8-12.1,47.8-21.9,50.1c-38.3,9.1-41.1-125.1-41.1-125.1
				l15.1-3.7c0,0,15.5,86.6,21.3,86.1C811.7,379.6,803.5,305.9,829.3,299.9z"/>
			<path class="st18" d="M834.7,299.5c0,0-17.6-7.9-23.6,21.3c-6,29.2-3.7,51.2-7.1,52.8c-3.4,1.6-4.2,8.9-2.8,20.5
				c1.3,10.8-6.3,11.4-6.3,23s9.6,18.7,22.8,7.2c13.2-11.5,20.9-47.8,20.9-66.5S834.7,299.5,834.7,299.5z"/>
			<path class="st6" d="M1038.5,428.6c0,0-47.4-36.1-61.3-50c-13.9-13.9-35.2-20.4-54.3-34.9c-19.2-14.5-16.6-36.4-9.3-39.6
				c7.2-3.1,12.8-10.6,44.6,19.2s26.6,28.7,38.8,36.2c12.2,7.6,57.6,51.4,57.6,51.4L1038.5,428.6z"/>
			<path class="st21" d="M921.7,399.4c0,0-0.3-41.7,2-44.4c6.5-7.9,40.7,13.3,50.4,26c9.7,12.7,8.9-4,17.5-9.1
				c8.6-5.1,3-11.9,4.5-20.1c1.5-8.2,2.8-9.7-16.1-16.9s-42.2-32.8-54.6-35s-14.5,26.3-13.2,40.9
				C913.4,355.4,921.7,399.4,921.7,399.4z"/>
			<g>
				<path class="st6" d="M1302.5,225.2c2.5-1.7,8.6-6.1,8.6-6.1s18-9.3,16.7-12.2c-1.3-2.8-17.2,7-18,5.4
					c-0.7-1.3,21.5-11.1,19.2-15.3c-2.3-4.3-21.8,10.2-22.6,8.6c-0.8-1.7,21.2-14.5,19.7-18.2c-2.2-5-23.4,12.7-24,10.9
					c-0.7-1.7,18.2-12.3,15.9-16.1c-1.6-2.6-17.1,7.6-22.9,11.4c-9,5.9-12.5,7.7-9.7,2.2c1.9-3.7,2.4-8.8,1.3-9.9
					c-2.6-2.6-4.4,4.4-8.3,7.7c-3.9,3.3-10.5,18.9-11.2,24C1265.6,226.7,1275,243.6,1302.5,225.2z"/>
				<g>
					<g>
						<path class="st16" d="M811.9,194.6c0,0-12.4-3.5-17.6-1.2c-5.2,2.4-4,7.7-1,8.8c3.1,1.2,19.1-5.1,19.2-6.5
							C812.7,194.2,811.9,194.6,811.9,194.6z"/>
						<path class="st17" d="M806.8,198.9c0,0-7.3-1.1-12.2,1.9c-4.9,3-3.1,8.1,0.1,8.9c3.2,0.8,12.9-8.3,12.8-9.7
							C807.5,198.5,806.8,198.9,806.8,198.9z"/>
						<path class="st17" d="M812.7,201.8c0,0-11,2.3-15.9,5.3c-4.9,3-3.1,8.1,0.1,8.9c3.2,0.8,15.1-8.7,15-10.1
							C812,204.3,812.7,201.8,812.7,201.8z"/>
						<path class="st17" d="M813.3,202.9c0,0-9.8,6.1-14.6,9.1c-4.9,3-3.1,8.1,0.1,8.9c1.6,0.4,6.4,5.6,15.5,6.7
							c4.6,0.6,21.3,7.5,21.4,6.8C839.5,214.6,813.3,202.9,813.3,202.9z"/>
					</g>
					<g>
						<path class="st12" d="M780.2,155.4c0.4,1.2,7.1,1.5,15.2,0.6c8.1-0.9,14.6-2.5,14.7-3.8l0,0l2.8,26.1
							c0.8,7.4-3.9,14.1-10.8,16.1l2.2,20.8l6,8.2c0.1,0.7-3.3,1.6-7.5,2.1c-4.2,0.4-7.7,0.2-7.8-0.5l4.1-9.3l-2.2-20.8
							c-7.2-0.5-13.2-6-14-13.4L780.2,155.4L780.2,155.4z"/>
						
							<ellipse transform="matrix(0.9944 -0.1055 0.1055 0.9944 -11.7756 84.7484)" class="st13" cx="795.2" cy="153.7" rx="15.1" ry="2.3"/>
						<path class="st14" d="M799.1,190.6c6.4-0.7,11.1-6.5,10.4-12.9l-0.9-8.4c-2.6,0.3-20.3,2.2-23.4,2.5l0.9,8.4
							C786.9,186.6,792.7,191.3,799.1,190.6z"/>
						
							<ellipse transform="matrix(0.9944 -0.1055 0.1055 0.9944 -13.5379 85.0302)" class="st8" cx="797" cy="170.5" rx="11.8" ry="2"/>
					</g>
					<path class="st6" d="M854.4,236.1c0,0-8.2-19.7-14.3-26.1c-6.2-6.4-21.1-21.2-29.4-18.8c-9.1,2.6-4.9,6-13.7,8.9
						c-7.2,2.4-0.7,10,8.6,5.4c8.5-4.3,3.5-0.1,10.2,7.4c6.7,7.5,12.4,3,15.7,11.8s7.8,15.3,7.8,15.3L854.4,236.1z"/>
				</g>
				<path class="st6" d="M1000.5,279.5c6.2,0.2,12.5-1.2,18.7-1c8,0.3,14.7-5.8,15.4-13.8l2.7-34.1h40.4l2.9,36.5
					c0.6,7.6,6.8,13.5,14.4,13.8c5.3,0.2,10.5,0.3,15.8,0.5c10,0.3,17.6,9.1,16.4,19.1c-7.6,65.8-24.9,110.8-19.5,202l-108.2-1.8
					c6.8-91.7-11.3-129.7-15.4-198.6C983.7,291.6,990.5,279.1,1000.5,279.5z"/>
				<path class="st22" d="M1034.2,267.1c0.2-0.8,0.3-1.6,0.4-2.4l2.7-34.1h40.4l1.3,16.5C1079,247,1059.4,262.5,1034.2,267.1z"/>
				<path class="st20" d="M1117.8,873.7v21.7h-82.3c0,0,2.2-5.2,12.7-10.3c12-5.9,37.6-11.4,37.6-11.4H1117.8z"/>
				<path class="st20" d="M1033.5,873.7v21.7h-82.3c0,0,2.2-5.2,12.7-10.3c12-5.9,37.6-11.4,37.6-11.4H1033.5z"/>
				<path class="st6" d="M1010.4,209.5c0,22.8,1.9,43.6,8.7,47.1c14.7,7.5,41-1.6,55.8-7.7c19.5-7.9,28.3-39.2,24.4-55.1
					c-5.8-23.6-26.7-37.3-51-35.7C1028.3,159.5,1010.4,171.6,1010.4,209.5z"/>
				<path class="st21" d="M1026.4,276.8c0,0-33.2-2.2-39.1,6.2c-5.9,8.3,14.1,85.4,17.7,102.6c6.5,31-5.3,114.9-5.3,114.9l108.2,1.8
					c0,0-1.6-40.6,3.3-79.5c5-38.9,21.7-104,19.3-122.5c-0.7-5.8-3.1-13.1-13.6-17.8c-7.6-3.4-31.2-5.4-31.2-5.4
					s-13.8,19.1-35.4,17.7C1028.9,293.4,1026.4,276.8,1026.4,276.8z"/>
				<g>
					<path class="st4" d="M1026.1,147.6c25.8,5.5,44.6-5.7,61.1,13.5c31.5,7.1,29.6,64.7-7.8,90.7c-3.7-8.8-5.8-15.9-5.8-24.7
						c0-1.9,12.7-1.4,13.3-13.4c0.4-7-5.5-10.4-9.5-9.2c-7.9,2.3-5.7,10.4-9.1,10.7c-1.9,0.2-7.2-0.3-10.3-11.7
						c-2.3-8.4-10.5-19.3-20.8-16.4c-12.5,3.5-16.6,3.3-24.3,0.8C986.9,175.7,1000.1,142.1,1026.1,147.6z"/>
					<g>
						<path class="st8" d="M1027.9,150c11.5,2.4,21.5,0.6,33.4,1.5c9.2,0.7,18.6,3.5,25.9,9.6c-16.5-19.2-35.2-8-61.1-13.5
							c-22.1-4.7-34.9,18.8-22.4,33.5C994.4,166.4,1007,145.6,1027.9,150z"/>
					</g>
				</g>
				<path class="st4" d="M1062.1,209.2c0,0-1.9,22.2-10.6,22.2c-8.7,0-10.3-4.5-17.3-5.2c-6.5-0.7-9.4,2-9.4,2s-3.6-1.5-7.9-1.5
					c-4.3,0-5.9,1.8-6.6,4.4c-0.6,2.5-1.2,11.5,4,21.8c4.4,8.5,13.2,17,13.2,17s20.6-8.9,28.2-14.1c9-6.2,11.3-13.4,11.6-21.4
					c0.3-8,2.7-20.8,2.7-20.8L1062.1,209.2z"/>
				<polygon class="st7" points="999.7,500.6 995,873.7 1033.5,873.7 1050,548.6 1056.9,548.6 1082.6,873.7 1117.8,873.7 
					1107.8,502.4 				"/>
				<path class="st9" d="M1010.4,283c0,0-83.3-25.1-98.2-35.5c-21.7-15.1-67.9-32.6-67.9-32.6l-12,19.5c0,0,28.5,27,57.9,43.2
					c19.1,10.5,32.8,20.1,49.9,28.8c22,11.3,54,26.6,54,26.6L1010.4,283z"/>
				<path class="st9" d="M1100.7,288c0,0,83-30.1,97.9-40.5c21.7-15.1,67.9-32.6,67.9-32.6l12,19.5c0,0-28.5,27-57.9,43.2
					c-19.1,10.5-96.4,67.9-96.4,67.9L1100.7,288z"/>
				<path class="st9" d="M1088.5,277.3c0,0-10.5,10-14.3,39.9c-3.7,30,1,184.5,1,184.5l43,0.8c0,0-3.4-76.3,1.9-104.7
					c5.3-28.4,11.9-55.9,10.7-72.5c-1.3-18.4,4.9-48.3,4.9-48.3L1088.5,277.3z"/>
				<path class="st9" d="M1022.4,276.8c0,0,10.7,10,14.4,40c3.7,30-1,184.5-1,184.5h-44c0,0,6.3-73.2,2.9-101.9
					c-3.7-30.2-6.2-52.4-7.4-73.7c-1.1-18.4-1.6-50.5-1.6-50.5L1022.4,276.8z"/>
				<path class="st23" d="M1074.2,317.3c0,0-5,28.8-4.2,74.6s6.7-5.1,12.9,3.6c6.2,8.6,9,22.3,10.1,10.3
					c1.2-12.6-4.6-128.4-4.6-128.4s-10.1,1.6-10.7,15.3C1077.3,306.3,1074.2,317.3,1074.2,317.3z"/>
				<g>
					<path class="st24" d="M1033,270.3c0,0,4.7,17.7,19.3,18c14.6,0.3,28.3-21.3,28.3-21.3s6.9,3.6,7.9,10.3c-6,16.5-9.6,53-32.8,53
						c-25.3,0-28.9-29.2-33.3-53.5C1025.4,270.8,1033,270.3,1033,270.3z"/>
					<path class="st25" d="M1080.7,267.1c-4.6,13.6-11.4,26.1-25,26.1c-14.4,0-21.8-9.5-26.3-22.1c-2.4,0.8-5.4,2.4-7.1,5.8
						c4.5,24.2,8,53.5,33.3,53.5c23.2,0,26.8-36.4,32.8-53C1087.5,271.1,1081.5,267.6,1080.7,267.1z"/>
					<path class="st24" d="M1084,269.5c-4.6,17.1-11,37.2-28.2,37.2c-18.7,0-25.5-15.9-29.6-34c-1.4,1-2.8,2.3-3.7,4.2
						c4.5,24.2,8,53.5,33.3,53.5c23.2,0,26.8-36.4,32.8-53C1088,273.9,1085.9,271.3,1084,269.5z"/>
					<path class="st25" d="M1055.7,315.7c-21.3,0-27.2-20.7-31.2-41.7c-0.8,0.8-1.6,1.7-2.1,2.9c4.5,24.2,8,53.5,33.3,53.5
						c23.2,0,26.8-36.4,32.8-53c-0.4-2.3-1.4-4.3-2.7-5.8C1081,289.6,1075.4,315.7,1055.7,315.7z"/>
					<path class="st21" d="M1055.7,315.7c-21.3,0-27.2-20.7-31.2-41.7c-0.3,0.3-0.5,0.6-0.8,0.9c4,22.4,9.2,46.1,32,46.1
						c21,0,26-30,31.2-47.9c-0.3-0.5-0.7-1-1-1.5C1081,289.6,1075.4,315.7,1055.7,315.7z"/>
				</g>
			</g>
			<g>
				<path class="st6" d="M824.9,818.5c0,0,4,14.3,3,24.5c-1.1,10.2-28.8,51.1-40.5,51.1c-11.7,0-21.3,0-26.2,0s33.2-30.9,41.1-47.7
					s7.9-27.9,7.9-27.9H824.9z"/>
				<path class="st7" d="M827.6,832.9c0.5,0.1-7,10.3-16,22.1c-6.9,9.1-15.2,19.1-21.9,22c-7.8,3.4-11.2-1.8-11.2-1.8
					s-9.3,4.2-15.6,12.2c-2.9,3.7-5,9.4,0,9.4c13.1,0,18.8,0,28,0c7.4,0,20.2-19.2,24.1-27.2c1.7-3.5,5.4-3.5,5.4-0.9
					s0.3,28.1,0.3,28.1h5.5c0,0-0.1-28,1.9-32c2.8-5.4,4.6-12.7,3.8-20.2C831.1,838.3,827.6,832.9,827.6,832.9z"/>
			</g>
			<g>
				<path class="st6" d="M895.5,818.5c0,0,4,14.3,3,24.5c-1.1,10.2-28.8,51.1-40.5,51.1c-11.7,0-21.3,0-26.2,0s33.2-30.9,41.1-47.7
					s7.9-27.9,7.9-27.9H895.5z"/>
				<path class="st7" d="M898.1,832.9c0.5,0.1-7,10.3-16,22.1c-6.9,9.1-15.2,19.1-21.9,22c-7.8,3.4-11.2-1.8-11.2-1.8
					s-9.3,4.2-15.6,12.2c-2.9,3.7-5,9.4,0,9.4c13.1,0,18.8,0,28,0c7.4,0,20.2-19.2,24.1-27.2c1.7-3.5,5.4-3.5,5.4-0.9
					s0.3,28.1,0.3,28.1h5.5c0,0-0.1-28,1.9-32c2.8-5.4,4.6-12.7,3.8-20.2C901.7,838.3,898.1,832.9,898.1,832.9z"/>
			</g>
			<path class="st6" d="M839.7,300c8.6-0.2,18.3-6,19.8-14.4c2.1-11.4,1-38.4,1-38.4H893c0,0-0.9,30.4,1.1,39.7
				c1.8,8,15.2,11.1,24.2,13.8c9.8,3-2.6,26.2-2,37c1.5,24.5-17.9,48.6,15.5,148.8l-113.6,6c7.9-33,17.5-78.7,9.4-103.6
				c-7.9-24.1-4.9-36.7-0.3-54.2C830.2,323.7,829.2,300.2,839.7,300z"/>
			<path class="st19" d="M928.3,467.4c0,0,22.8,46.3,10.3,90.1c-27.9,97.3-26.7,277.1-26.7,277.1h-53.4l5.4-73.1l16.6-225.1h-14.2
				L841,629.1c-3.8,14.5-5.7,29.5-5.5,44.5l1.8,161h-50.3l4.1-163.2c-0.6-12,0.2-24.1,2.2-36l27.9-162.7L928.3,467.4z"/>
			<path class="st21" d="M851.4,296.4c0,0,1.9,17.4,17.8,18.3c23,1.3,35.2-18.7,35.2-18.7l19.7,5c0,0-5.7,51.5-2.7,94
				s33,125.9,33,125.9l-8.6,7.3l10.1,20.2c0,0-38.2,18.2-81.8,18.2s-79-13.9-79-13.9l11-21l-11-4.5c0,0,36.7-76.5,31.8-137.1
				c-1.1-13.2-7-25.1-3.9-50.9c2.2-19.1,10.6-40.2,10.6-40.2L851.4,296.4z"/>
			<path class="st26" d="M925.4,422L925.4,422c0,0-30,6.6-55.8,6.6s-44-2.2-44-2.2l0,0c-0.7,5.5-1.6,10.9-2.7,16.3
				c12.3,1.1,30.1,2.3,45.4,2.3c19.9,0,48.5-2.1,61.7-3.1C928.3,435.1,926.7,428.4,925.4,422z"/>
			<path class="st18" d="M806,531.8c0,0,29,8.5,54,9.1c45.8,1.1,85.7-13,85.7-13s-36.6,18.2-85.5,16.3
				C822.9,542.6,806,531.8,806,531.8z"/>
			<g>
				<circle class="st4" cx="927.1" cy="199.4" r="21.9"/>
				<path class="st8" d="M927.1,221.3c2.1,0,4-0.3,5.9-0.8c-0.7-8.8-3.5-17.2-7.5-24.2c-3.1-5.4-7.5-10-12.7-13.6
					c-4.7,4-7.7,10-7.7,16.7C905.2,211.5,915,221.3,927.1,221.3z"/>
				<path class="st8" d="M893,247.2c0,0-0.6,9.5-0.2,21.5c-9,8.2-23.2,15.7-33.9,18.6c0.2-0.6,0.4-1.1,0.5-1.7
					c2.1-11.4,1-38.4,1-38.4H893z"/>
				<path class="st4" d="M836.7,197.5c0,0-5.6,14.8-5,25.8c0.6,11,1.7,15.1,1.7,15.1l13.8-36.6L836.7,197.5z"/>
				<path class="st6" d="M833.4,236.4c-0.4,21.1,6,42.3,11.8,45.3c9.7,5.2,34-7.6,47.7-13.1c17.9-7.3,27-31.8,24.8-46.7
					c-3.4-22.4-27-34.4-49.3-32.9C849.9,190.3,834.1,201.4,833.4,236.4z"/>
				<path class="st4" d="M836.8,209.7c0,0,9,5.3,20.6,10.4c11.6,5.1,21.4,22.5,21.4,22.5s7.5-12.2,15.6-6.7
					c8.1,5.6,0.2,18.7-7.1,17.7c-7.3-0.9-5.4,2.6-2.1,8.4s8.2,18,8.2,18s5.3-10.1,19.4-21.4c21.7-17.4,18.9-44.8,8.8-62.4
					c-12.1-21.1-43.8-29.6-67.1-17.9C828.9,191.2,836.8,209.7,836.8,209.7z"/>
			</g>
			<path class="st5" d="M761.3,278.1c0.5-3,2-10.4,2-10.4s0.9-20.5,4.2-20.5c3.2,0,0.8,18.8,2.6,18.9c1.5,0.1,1.1-24.4,6-24.1
				c5,0.3-0.2,24.4,1.6,24.5c1.9,0.1,4.4-25.7,8.5-25.8c5.5-0.1-1.8,26.9,0.1,26.7c1.9-0.1,3.6-21.9,8.1-21.4
				c3.1,0.3,0.2,19-0.8,25.9c-1.7,10.8-1.8,14.7,2.1,9.9c2.6-3.3,7.1-5.9,8.6-5.3c3.5,1.3-2.2,5.9-3.6,10.9s-13,17.6-17.4,20.4
				C775.4,312.7,755.9,311.2,761.3,278.1z"/>
		</g>
	</g>
</g>
</svg>
